/* XPM */
static char *b1963b5465e24f59d4d8e38439e68dc8fRZNNUQdr0aC96an[] = {
/* columns rows colors chars-per-pixel */
"16 17 7 1 ",
"  c None",
". c #473937",
"X c #346141",
"o c #417E40",
"O c #D67140",
"+ c #74B162",
"@ c #E1A469",
/* pixels */
"                ",
"       ...      ",
"      .+++.     ",
"      .+++...   ",
"      .++++++.  ",
"       ..+X++.  ",
"      ..oo.++.  ",
"     .@@O. ..   ",
"    .@@OO.      ",
"    .@OOO.      ",
"   .@OOOO.      ",
"   .OOOO.       ",
"  .@OOO.        ",
"  .OOO.         ",
"  ....          ",
"                ",
"                "
};
