/* XPM */
static char *_eabdae457274b30a1803513eb2f4da9xLyoTiLjZeLpduVR[] = {
/* columns rows colors chars-per-pixel */
"33 33 70 1 ",
"  c #473937",
". c #5D4337",
"X c #7A6040",
"o c #B57265",
"O c #C6966F",
"+ c #4777A3",
"@ c #D7B686",
"# c #AADCBF",
"$ c #AADDBF",
"% c #ABDDBF",
"& c #ACDDBF",
"* c #ACDEBF",
"= c #ADDEBF",
"- c #AEDEBF",
"; c #AEDFBF",
": c #AFDFBF",
"> c #99D3C3",
", c #9AD3C3",
"< c #9AD4C3",
"1 c #9BD4C3",
"2 c #9DD5C2",
"3 c #9CD4C3",
"4 c #9CD5C3",
"5 c #9DD5C3",
"6 c #9DD6C2",
"7 c #9ED6C2",
"8 c #9FD6C2",
"9 c #9FD7C2",
"0 c #9ED6C3",
"q c #9FD6C5",
"w c #A1D7C1",
"e c #A0D7C2",
"r c #A1D7C2",
"t c #A0D6C7",
"y c #A1D6C7",
"u c #A0D7C7",
"i c #A1D7C7",
"p c #A2D7C7",
"a c #A3D8C1",
"s c #A1D8C2",
"d c #A2D8C2",
"f c #A3D8C2",
"g c #A4D8C1",
"h c #A4D9C1",
"j c #A5D9C1",
"k c #A5DAC1",
"l c #A6DAC0",
"z c #A7DAC0",
"x c #A6DAC1",
"c c #A3D8C7",
"v c #A5D9C6",
"b c #A6DAC6",
"n c #A9DCC0",
"m c #AADCC0",
"M c #AADDC0",
"N c #AFDEC1",
"B c #A8DBC5",
"V c #ABDCC5",
"C c #ACDCC4",
"Z c #AFDDC4",
"A c #A8DACB",
"S c #B0DEC3",
"D c #B1DFC3",
"F c #B2DFC3",
"G c #B0DEC4",
"H c #B3E0C3",
"J c #B5E1C2",
"K c #B5E2C2",
"L c #BAE3C6",
"P c #B9D4E5",
/* pixels */
"ApppppppppppppppppppppppppBFKKKKL",
"q1111111111111111,,,,,11,1rm----N",
"11111111111111111,,,,,11118rfffff",
"p1111111111111188rrrrr8811111111p",
"p1111111111111,8f#---#l8,,1,,,,,p",
"p1111111111111,8l-----l8,,111111p",
"p111111111111118rlllllr811111111p",
"p,,,,111111111111111111111111111p",
"p,,,,,11111111111,,,,,,11111111,p",
"v8888  @@@@@@@@@@@@@@@@@@@@@ 188v",
"Gmmm @@ooooooooooooooooooooo@ 8lC",
"H-- @oooo.OOOO.ooooo.OOOO.ooo@ mF",
"Cl @ooooo.OOOO.ooooo.OOOO.ooo@ lC",
"c @ooooXX.OOOO.XXXXX.OOOO.XXo@ Pc",
"p @ooXXoo.OOOO.ooooo.OOOO.ooX@ Pp",
"P o@Xoooo.OOOO.ooooo.OOOO.ooX@ Pp",
"P oo@oooo.OOOO.ooooo.OOOO.ooX@ Pp",
"+PXoo@@oo.OOOO.ooooo.OOOO.oo@o Pp",
"p+PXooo@@@@@@@@@@@@@@@@@@@@@oo Pp",
"p1+PXooooooooooooooooooooooooXP+p",
"p11+PXXoooooooooooooooooooooXP+1p",
"p111+PPXXXXXXXXXXXXXXXXXXXXXP+11p",
"p,111++PPPPPPPPPPPPPPPPPPPPP+,,,p",
"p111111+++++++++++++++++++++1111p",
"Vf81111+++++++++++++++++++++8fllV",
"Fmr1,111111,,,111111111111,1rm--H",
"Fl81,111111118rlllllr81111,1rl##F",
"v88111111111,8l-----l8,,111188rrv",
"p,1111111111,8l#---#l8,,11111,,,p",
"p,1111111111188rrrrr881111111,,,p",
"111111111111111,,,,,1111111111111",
"q11111111111111,,,,,111111111111q",
"ApppppppppppppppppppppppppppppppA"
};
