/* XPM */
static char *_ff1dcce33214023aaacb0e9a993e3edQjzZ3B79c6ojpP8U[] = {
/* columns rows colors chars-per-pixel */
"16 24 7 1 ",
"  c None",
". c #533A38",
"X c #F27575",
"o c #FBC57C",
"O c #FFAD99",
"+ c #85C3D7",
"@ c #F4ECE6",
/* pixels */
"                ",
"                ",
"                ",
"                ",
"    ..    ..    ",
"   .@@.  .@@.   ",
"   .@O.  .O@.   ",
"   .@O....O@.   ",
"   .@O.@@.O@.   ",
"  .@@@@@@@@@@.  ",
"  .@@@@@@@@@@.  ",
" ..@@@o@@o@@@.. ",
"  .@@@@@@@@@@.  ",
" ..@@.@@@@.@@.. ",
"  .@@.@OO@.@@.  ",
"   .O@@@@@@O.   ",
"   ..........   ",
"  .@.o++++o.@.  ",
"  .@.XXXXXX.@.  ",
"   ..XX..XX..   ",
"   .@@@..@@@.   ",
"                ",
"                ",
"                "
};
