/* XPM */
static char *_f3049b8840a4c499657453bd9105a95ynIY7iT4Z5gFdi89[] = {
/* columns rows colors chars-per-pixel */
"16 16 2 1 ",
"  c #B1E0BE",
". c #9BD4C3",
/* pixels */
".............   ",
"................",
"........   .....",
"................",
"................",
"   ............ ",
"................",
"................",
".........    ...",
"................",
".....  .........",
"................",
" .............  ",
".......   ......",
"................",
"................"
};
