/* XPM */
static char *c7fca18325824637c99825b1a413aec7f36KtPwTmENMIbTJ[] = {
/* columns rows colors chars-per-pixel */
"32 32 142 2 ",
"   c #483A38",
".  c #4B3F39",
"X  c #3E4E3C",
"o  c #4D4437",
"O  c #4B433A",
"+  c #4C453B",
"@  c #4C473C",
"#  c #45483B",
"$  c #4D483D",
"%  c #4F4F3F",
"&  c #584F3F",
"*  c #42573C",
"=  c #57543A",
"-  c #6A4C3B",
";  c #724A3A",
":  c #704E3A",
">  c #7F4F3B",
",  c #78573F",
"<  c #60663A",
"1  c #656439",
"2  c #63693D",
"3  c #6E6839",
"4  c #796C3A",
"5  c #66713C",
"6  c #385E40",
"7  c #535541",
"8  c #545541",
"9  c #5D5541",
"0  c #5E5E44",
"q  c #605C41",
"w  c #566246",
"e  c #586647",
"r  c #596A49",
"t  c #437943",
"y  c #5C704B",
"u  c #5D734C",
"i  c #5D754C",
"p  c #547949",
"a  c #5F794E",
"s  c #666246",
"d  c #646647",
"f  c #606B49",
"g  c #6C6848",
"h  c #6D7940",
"j  c #67734C",
"k  c #6B7A4F",
"l  c #687D4F",
"z  c #737F43",
"x  c #7B7B4F",
"c  c #617E50",
"v  c #727E50",
"b  c #7E7F51",
"n  c #925C3C",
"m  c #955D3F",
"M  c #9A593C",
"N  c #985D3D",
"B  c #A75F3D",
"V  c #8E6E3C",
"C  c #96623E",
"Z  c #BC683F",
"A  c #BF6D3F",
"S  c #C66B3F",
"D  c #CE6E3F",
"F  c #C9713F",
"G  c #8C6744",
"H  c #936840",
"J  c #81734B",
"K  c #A07440",
"L  c #A87D49",
"P  c #D37040",
"I  c #D67140",
"U  c #D97E4A",
"Y  c #57944F",
"T  c #5D8851",
"R  c #768047",
"E  c #7A804C",
"W  c #638452",
"Q  c #658853",
"!  c #668C55",
"~  c #698C54",
"^  c #758151",
"/  c #7E8051",
"(  c #679056",
")  c #689257",
"_  c #6B9759",
"`  c #6C9B5A",
"'  c #6D9F5B",
"]  c #6EA15C",
"[  c #6DAA5D",
"{  c #70A65E",
"}  c #72AB60",
"|  c #73AF61",
" . c #73B061",
".. c #74B162",
"X. c #8F8E4C",
"o. c #828352",
"O. c #838653",
"+. c #888C55",
"@. c #899750",
"#. c #8B9951",
"$. c #8C9B52",
"%. c #8F9D54",
"&. c #899358",
"*. c #8D9358",
"=. c #8C9458",
"-. c #8F985A",
";. c #939257",
":. c #9C9152",
">. c #929A5A",
",. c #969F5D",
"<. c #AB8C55",
"1. c #B68D56",
"2. c #93A157",
"3. c #98A05D",
"4. c #9CAC5B",
"5. c #A1B25E",
"6. c #A3B45F",
"7. c #9EAA60",
"8. c #A0AC61",
"9. c #A6B163",
"0. c #A7B464",
"q. c #A7B962",
"w. c #A9BB63",
"e. c #AAB866",
"r. c #ADBB67",
"t. c #ACBE65",
"y. c #AEBD68",
"u. c #D9804C",
"i. c #DB8A54",
"p. c #D68F58",
"a. c #E1A469",
"s. c #A4C263",
"d. c #AEC065",
"f. c #B1C26A",
"g. c #B3C46B",
"h. c #B5C66B",
"j. c #B7C86C",
"k. c #B9CB6C",
"l. c #BBCD6D",
"z. c #BED26F",
"x. c #BFD370",
"c. c #C0D470",
/* pixels */
"c.c.c.c.c.c.c.c.c.c.c.c.c.c.c.c.c.s.c.c.c.c.c.c.c.c.c.c.c.c.c.c.",
"c.c.c.c.c.c.c.c.c.c.c.c.c.c.c.c.c.c.c.c.c.c.c.c.c.c.c.c.c.c.c.c.",
"c.c.c.c.c.c.c.c.c.c.c.c.c.c.c.c.c.c.c.c.c.c.c.c.c.c.s.c.c.c.c.c.",
"c.c.c.c.c.c.c.c.c.c.c.c.c.c.c.c.c.c.c.c.c.c.c.c.c.c.c.c.c.c.c.s.",
"c.c.c.c.c.s.c.c.c.c.c.c.c.c.c.c.c.c.c.c.j.*./ O.r.c.c.c.c.c.c.c.",
"c.c.c.c.c.c.c.c.c.c.c.c.x.f.e.e.j.c.c.h.7.d % 8 -.f.x.c.c.c.c.c.",
"c.c.c.c.c.c.c.c.c.c.c.c.z./ 9 9 ,.c.c.=.0 ~ ` _ f / z.c.c.c.c.c.",
"c.c.c.c.c.c.c.c.c.c.c.e.+.k y y ^ +.+.v a ] ..| W k +.e.c.c.c.c.",
"c.c.c.c.c.c.c.c.c.x.j.=.@ ! ....u O   i ..........Q   >.c.c.c.c.",
"c.c.c.c.c.c.c.c.c.j.b j ) { ....' c + i ..........Q   >.c.c.c.c.",
"c.c.c.c.c.c.c.c.c.g.s e ..........] y ! } ! W W W r   >.c.s.c.c.",
"c.c.c.s.c.c.c.c.c.g.s e | | | | .... .| ' 7 . . . . . >.c.c.c.c.",
"c.c.c.c.c.c.c.c.c.g.s $ w w w w ( [ Y p f &.,.,.,.,.,.f.c.c.c.c.",
"c.c.c.c.c.c.c.c.c.j.o.g g g g g l T t * & 9.c.c.c.c.c.c.c.c.c.c.",
"s.c.c.c.c.c.c.c.c.z.l.k.k.k.k.k.x # 6 X & 9.c.c.c.c.c.c.c.c.c.c.",
"c.c.c.c.c.c.c.c.c.c.c.c.c.c.e.b G N H C m J 3.c.c.c.c.c.c.c.c.c.",
"c.c.c.c.c.c.c.c.c.c.c.c.x.y.;.- B I I I S > J 0.k.c.c.c.c.c.c.s.",
"c.c.c.c.c.c.c.c.c.c.c.c.z.x , Z D I I I P S m 9 8.c.c.c.c.c.c.c.",
"c.c.c.c.c.c.c.c.c.c.c.d.%.q ; D u.i.i.U I I M . E 5.x.c.c.c.c.c.",
"c.c.c.c.c.c.c.c.c.c.c.5.h = : A p.a.a.i.I F n o 2 #.z.c.s.c.c.c.",
"c.s.c.c.c.c.c.c.c.c.c.l.w.R 1 4 1.a.a.i.F V 3 < 2.g.x.c.c.c.c.c.",
"c.c.c.c.c.c.c.c.c.c.c.c.x.4.@.@.:.<.<.L K X.@.$.d.c.c.c.c.c.c.s.",
"c.c.c.c.c.c.c.c.c.c.c.c.c.c.c.c.$.5 5 5 z t.c.c.c.c.c.c.c.c.c.c.",
"c.c.c.c.c.c.c.c.c.c.c.c.c.c.c.c.d.6.6.6.q.l.c.c.c.c.c.c.c.c.c.c.",
"c.c.c.c.c.c.c.c.c.c.c.c.c.c.c.c.c.c.c.c.c.c.c.c.c.c.c.c.c.c.c.c.",
"c.c.c.c.c.c.c.c.c.c.c.c.c.c.c.c.c.c.c.c.c.c.c.c.c.c.c.c.c.c.c.c.",
"c.c.c.c.c.c.c.c.c.c.c.c.c.c.c.c.c.c.c.c.c.c.c.c.c.c.c.c.c.s.c.c.",
"c.c.s.c.c.c.c.c.c.c.c.c.c.c.c.c.c.c.c.c.c.c.c.c.c.c.c.c.c.c.c.c.",
"c.c.c.c.c.c.c.c.c.c.c.c.c.c.c.c.c.c.c.c.c.c.c.c.c.c.c.c.c.c.c.c.",
"c.c.c.c.c.s.c.c.c.c.c.c.c.c.c.c.c.c.c.c.c.c.c.c.c.c.c.c.c.c.c.c.",
"c.c.c.c.c.c.c.c.c.c.s.c.c.c.c.c.c.c.c.c.s.c.c.c.c.c.c.c.c.c.c.c.",
"c.c.c.c.c.c.c.c.c.c.c.c.c.c.c.c.c.c.c.c.c.c.c.c.c.c.c.s.c.c.s.c."
};
