/* XPM */
static char *daf8a39e89ec4147c1cc24bc4044b3deKA4HupJFJJwsq3qb[] = {
/* columns rows colors chars-per-pixel */
"32 32 11 1 ",
"  c #473937",
". c #834D35",
"X c #B76B49",
"o c #B28261",
"O c #D79459",
"+ c #3FBCE1",
"@ c #3FC0E3",
"# c #3FC5E5",
"$ c #7FEEF4",
"% c #E4A889",
"& c #BFF3F4",
/* pixels */
"+                               ",
"+ OOOOOOOOOOOOOOOOOOOOOOOOOOOOOO",
"+ ..XXXOXOOOOOOOOOOOOOOOOXOXXX..",
"+ OOOOOOOOOOOOOOOOOOOOOOOOOOOOOO",
"+ %%%%%%%%%%%%%%%%%%%%%%%%%%%%%%",
"+ XXXXXXXXXXXXXXXXXXXXXXXXXXXXXX",
"+                               ",
"++ oo +++++++$$$$$$$$$$$$$$$ oo ",
"+                               ",
"+ OOOOOOOOOOOOOOOOOOOOOOOOOOOOOO",
"+ ..XXXOXOOOOOOOOOOOOOOOOXOXXX..",
"+ OOOOOOOOOOOOOOOOOOOOOOOOOOOOOO",
"+ %%%%%%%%%%%%%%%%%%%%%%%%%%%%%%",
"@ XXXXXXXXXXXXXXXXXXXXXXXXXXXXXX",
"@                               ",
"@@ oo @@@@@@@&&&&&&&&&&&&&&& oo ",
"@                               ",
"@ OOOOOOOOOOOOOOOOOOOOOOOOOOOOOO",
"@ ..XXXOXOOOOOOOOOOOOOOOOXOXXX..",
"@ OOOOOOOOOOOOOOOOOOOOOOOOOOOOOO",
"@ %%%%%%%%%%%%%%%%%%%%%%%%%%%%%%",
"@ XXXXXXXXXXXXXXXXXXXXXXXXXXXXXX",
"@                               ",
"@@ oo @@@@@@@&&&&&&&&&&&&&&& oo ",
"@                               ",
"@ OOOOOOOOOOOOOOOOOOOOOOOOOOOOOO",
"@ ..XXXOXOOOOOOOOOOOOOOOOXOXXX..",
"@ OOOOOOOOOOOOOOOOOOOOOOOOOOOOOO",
"@ %%%%%%%%%%%%%%%%%%%%%%%%%%%%%%",
"# XXXXXXXXXXXXXXXXXXXXXXXXXXXXXX",
"#                               ",
"#############&&&&&&&&&&&&&&&&&&&"
};
