/* XPM */
static char *d5d714176e904dc39588ae071bdd7036UifmZyuqCYeuCfdY[] = {
/* columns rows colors chars-per-pixel */
"32 32 8 1 ",
"  c #533A38",
". c #F27575",
"X c #A4C263",
"o c #C0D470",
"O c #FBC57C",
"+ c #FFAD99",
"@ c #85C3D7",
"# c #F4ECE6",
/* pixels */
"oooooooooooooooooXoooooooooooooo",
"oooooooooooooooooooooooooooooooo",
"ooooooooooooooooooooooooooXooooo",
"oooooooooooooooooooooooooooooooX",
"oooooXoooooooooooooooooooooooooo",
"oooooooooooooooooooooooooooooooo",
"oooooooooooooooooooooooooooooooo",
"oooooooooooooooooooooooooooooooo",
"oooooooooooooo  oooo  oooooooooo",
"ooooooooooooo ## oo ## ooooooooo",
"ooooooooooooo #+ oo +# ooooooXoo",
"oooXooooooooo #+    +# ooooooooo",
"ooooooooooooo #+ ## +# ooooooooo",
"oooooooooooo ########## oooooooo",
"Xooooooooooo ########## oooooooo",
"ooooooooooo  ###O##O###  ooooooo",
"oooooooooooo ########## oooooooX",
"ooooooooooo  ## #### ##  ooooooo",
"oooooooooooo ## #++# ## oooooooo",
"ooooooooooooo +######+ oooooXooo",
"oXooooooooooo          ooooooooo",
"oooooooooooo # O@@@@O # oooooooX",
"oooooooooooo # ...... # oooooooo",
"ooooooooooooo  ..  ..  ooooooooo",
"ooooooooooooo ###  ### ooooooooo",
"oooooooooooooooooooooooooooooooo",
"oooooooooooooooooooooooooooooXoo",
"ooXooooooooooooooooooooooooooooo",
"oooooooooooooooooooooooooooooooo",
"oooooXoooooooooooooooooooooooooo",
"ooooooooooXoooooooooXooooooooooo",
"oooooooooooooooooooooooooooXooXo"
};
